PathFileType	4	(X/Y/Z)	D:\TRACE\spotREDO_2-26-24\spot_baseline_5-v60.trc
DataRate	CameraRate	NumFrames	NumMarkers	Units	OrigDataRate	OrigDataStartFrame	OrigNumFrames
100.00	100.00	      21	9	mm	100.00	5251	      7000
Frame#	Time	front left toe			Front right toe			aft left toe			aft right toe			Arm			FL body			FR body			AL Body			AR Body			
		X1	Y1	Z1	X2	Y2	Z2	X3	Y3	Z3	X4	Y4	Z4	X5	Y5	Z5	X6	Y6	Z6	X7	Y7	Z7	X8	Y8	Z8	X9	Y9	Z9	

5251	52.500	-220.75346	20.83793	-87.43763	307.26166	27.94908	-85.79007	-316.85135	24.44995	395.81732	251.52779	29.36059	450.67737	24.32913	808.64880	-258.67902	-54.62683	547.61206	-240.59343	100.58146	555.67108	-228.19806	-134.75038	560.64392	639.26715	14.14844	564.15155	653.23889	
5252	52.510	-220.92744	20.67789	-87.43638	306.52673	27.39166	-86.22085	-316.92563	24.35580	395.84171	251.57010	29.48964	450.67001	23.88665	808.48627	-259.60107	-55.50285	547.22345	-241.83867	99.47891	555.58746	-229.63522	-135.39764	560.70581	638.12970	13.36615	563.93469	651.96783	
5253	52.520	-220.97620	20.61864	-87.48536	306.50101	27.36123	-86.32523	-316.99683	24.30484	395.80826	251.42426	29.61343	450.57327	22.73549	808.48651	-261.12683	-56.55349	547.38306	-243.33810	98.75086	555.43158	-230.79752	-136.43507	560.55670	636.65924	12.32792	563.81335	650.72955	
5254	52.530	-220.93745	20.65090	-87.58822	306.45471	27.46786	-86.37614	-317.02365	24.26906	395.78271	251.38345	29.76704	450.49567	21.81384	808.64893	-262.72958	-57.49145	547.42834	-244.66811	97.81126	555.14221	-232.08981	-137.33186	560.45959	635.05237	11.51044	563.58197	649.22894	
5255	52.540	-220.94492	20.63314	-87.65791	306.42007	27.55110	-86.48408	-317.04770	24.25624	395.84174	251.34288	29.86527	450.46048	21.35601	808.55798	-264.03140	-58.61679	547.67596	-246.23622	96.65295	555.30853	-234.01295	-138.17450	560.38458	633.67969	10.42486	563.33948	647.65967	
5256	52.550	-220.99004	20.69120	-87.72984	306.35098	27.74710	-86.59503	-317.09399	24.14584	395.78906	251.28990	29.87951	450.41824	20.74298	808.58905	-265.52164	-59.67705	547.82208	-247.98491	95.25198	555.30487	-235.68054	-138.99693	560.23572	632.09491	9.24750	562.97852	645.98694	
5257	52.560	-221.03412	20.65162	-87.80394	306.31180	27.78491	-86.69938	-317.11996	24.11500	395.83978	251.32858	29.91410	450.37698	19.88239	808.65948	-266.97647	-60.83955	547.98206	-249.67700	94.31255	555.24921	-237.31929	-139.68185	560.10742	631.01593	8.21390	562.56195	644.31250	
5258	52.570	-221.06454	20.61999	-87.80962	306.23410	27.83931	-86.80122	-317.19891	23.98981	395.81644	251.31425	29.90287	450.30460	18.67774	808.63965	-268.75577	-62.25633	547.98444	-251.35080	93.18982	555.15082	-239.25157	-141.32800	559.80182	628.60651	7.37865	562.11597	642.55170	
5259	52.580	-221.03839	20.62158	-88.02394	306.32242	28.00297	-86.69300	-317.11038	24.03221	395.89206	251.30598	29.60204	450.32687	17.42141	808.61890	-270.60706	-63.66088	547.98926	-253.36426	91.61031	554.92419	-241.22943	-142.50974	559.51007	626.63953	5.97416	561.73773	640.54895	
5260	52.590	-220.75166	20.61140	-88.50323	306.42044	27.86773	-86.80190	-317.25241	23.74079	395.90173	251.62563	29.61225	450.04529	16.16157	808.64471	-272.70630	-65.07458	547.94543	-255.57864	90.21783	554.94183	-243.50150	-143.93343	559.17114	624.57703	4.66388	561.34692	638.47046	
5261	52.600	-221.31784	19.83564	-88.81779	306.45410	28.26620	-87.58517	-317.75613	23.00360	395.65753	254.06219	36.13030	450.25574	14.41021	808.64337	-274.83939	-66.63080	548.21790	-257.71588	88.61149	554.88867	-245.59306	-144.96120	558.95184	622.35974	3.57623	560.61237	636.11182	
5262	52.610	-222.05759	19.97726	-88.55038	306.03464	28.33756	-88.05600	-318.24252	22.50280	395.87091	249.80745	43.78863	455.05945	13.21088	808.63629	-277.16064	-69.19301	549.19336	-260.25491	86.32806	554.74396	-247.75002	-145.48447	558.27533	620.28326	2.93866	559.10150	633.84619	
5263	52.620	-221.98666	19.98122	-88.81255	305.27451	28.49334	-88.85090	-318.10211	22.57405	395.96887	245.82294	54.42290	460.94745	12.87916	809.01245	-278.76566	-71.25448	549.45868	-262.11578	84.06755	554.91010	-250.60773	-146.61400	557.81305	617.75592	2.30939	558.31146	631.58405	
5264	52.630	-222.02638	19.58934	-88.65281	304.87457	28.73746	-89.13732	-317.71826	22.99029	395.59613	244.82666	66.58710	462.42221	11.55999	809.47760	-280.75992	-73.04360	549.18048	-264.14395	82.49633	553.90399	-252.35208	-147.72678	558.14069	615.75525	1.32015	558.31732	629.48035	
5265	52.640	-222.48175	18.82261	-88.81674	305.10361	28.82910	-88.85716	-317.70667	23.10054	395.55576	246.25334	80.20513	458.17505	10.25021	809.23749	-282.67294	-74.16114	548.34973	-265.94479	81.22894	553.33636	-254.55280	-148.93343	558.71606	614.27466	-0.39448	558.85254	627.34387	
5266	52.650	-222.66048	18.31310	-89.10059	305.24271	28.82629	-88.83193	-317.96307	23.15243	395.34265	248.86362	93.45807	450.69861	8.82101	807.94983	-284.97559	-74.94320	548.16010	-267.78296	80.30343	552.59326	-256.03436	-150.45222	559.02051	612.41071	-1.67534	558.75177	625.98364	
5267	52.660	-222.65157	18.43129	-89.10566	305.25876	28.90043	-88.77818	-318.37595	22.77270	395.32263	246.28746	104.62048	442.90210	8.02044	806.36151	-287.05847	-76.03062	548.19360	-269.49765	79.26348	552.52271	-257.82379	-152.39073	559.16919	610.50598	-3.21801	558.70673	624.29358	
5268	52.670	-222.56709	18.57382	-89.15218	305.22806	28.82326	-88.88908	-318.60260	22.51304	395.26944	243.47824	113.69454	439.80215	7.20492	806.58368	-288.68649	-77.12477	547.66754	-271.17352	78.14143	552.48175	-259.45493	-153.18307	558.88110	609.25903	-4.63585	558.48895	622.68494	
5269	52.680	-222.57817	18.50507	-89.20012	305.06073	28.87020	-89.12505	-318.64914	22.28859	395.20966	237.35191	121.60917	438.78052	6.54051	807.00281	-290.10297	-78.26206	547.78601	-272.79245	77.06030	552.49139	-261.10391	-154.00140	558.65411	607.64001	-5.68504	558.32837	621.04144	
5270	52.690	-222.68246	18.42502	-89.20422	304.94492	29.38960	-89.04613	-318.56030	22.27367	395.15686	235.06219	129.82570	439.49719	5.94899	807.14288	-291.50488	-79.21307	547.84961	-274.33005	76.15398	552.12854	-262.25568	-154.85741	558.50037	606.02808	-6.06150	558.15497	619.65973	
5271	52.700	-222.74580	18.20881	-89.32296	304.88440	29.09822	-89.37121	-318.52625	22.30648	395.14639	233.45363	136.71809	439.41855	5.51920	807.06152	-292.57217	-79.75597	547.66821	-275.49890	75.27480	552.20380	-264.01636	-155.91168	558.45624	604.66357	-7.51208	557.97711	618.07605	
